<?xml version="1.0" standalone="no"?>
<!DOCTYPE svg PUBLIC "-//W3C//DTD SVG 20010904//EN"
 "http://www.w3.org/TR/2001/REC-SVG-20010904/DTD/svg10.dtd">
<svg version="1.0" xmlns="http://www.w3.org/2000/svg"
 width="552.000000pt" height="552.000000pt" viewBox="0 0 552.000000 552.000000"
 preserveAspectRatio="xMidYMid meet">
<metadata>
Created by potrace 1.11, written by Peter Selinger 2001-2013
</metadata>
<g transform="translate(0.000000,552.000000) scale(0.100000,-0.100000)"
fill="#000000" stroke="none">
<path d="M2806 4703 c-1 -1 -47 -5 -101 -7 -112 -6 -143 -11 -218 -32 -29 -9
-92 -24 -140 -35 -48 -10 -95 -23 -105 -28 -9 -5 -21 -9 -27 -10 -44 -2 -385
-152 -393 -173 -2 -4 -9 -8 -16 -8 -6 0 -33 -20 -60 -45 -27 -25 -53 -45 -58
-45 -5 0 -7 -4 -4 -9 4 -5 3 -11 -1 -13 -16 -6 -65 -80 -85 -126 -25 -55 -30
-157 -12 -219 7 -24 10 -43 8 -43 -14 0 69 -131 109 -173 45 -47 47 -51 31
-68 -9 -10 -26 -21 -38 -25 -36 -11 -61 -38 -58 -60 4 -26 -22 -38 -49 -24
-10 6 -31 8 -45 6 -15 -3 -32 -2 -38 2 -6 3 -15 7 -21 9 -5 1 -21 5 -35 8 -14
4 -42 6 -62 5 -20 0 -47 5 -59 12 -17 10 -23 10 -26 1 -3 -9 -10 -10 -24 -3
-14 8 -31 7 -60 -3 -23 -8 -59 -13 -80 -12 -35 2 -39 0 -39 -22 0 -27 52 -80
88 -89 12 -4 22 -11 22 -17 0 -6 3 -8 6 -4 9 9 104 -76 104 -93 0 -5 -16 -14
-35 -20 -38 -13 -41 -29 -12 -73 9 -15 17 -30 17 -35 0 -5 6 -22 14 -38 8 -16
17 -42 20 -59 2 -16 5 -30 6 -30 1 0 3 -11 4 -24 2 -13 13 -32 24 -42 12 -9
22 -22 22 -28 0 -7 15 -26 33 -43 17 -18 37 -41 42 -53 6 -11 21 -20 35 -21
14 0 42 -8 62 -17 21 -9 42 -17 47 -17 15 0 22 -30 11 -51 -6 -10 -8 -19 -5
-19 3 0 1 -9 -5 -20 -6 -11 -7 -20 -1 -20 5 0 6 -14 1 -35 -7 -29 -5 -38 11
-49 14 -9 21 -28 23 -65 2 -28 9 -58 16 -66 13 -16 4 -56 -12 -52 -7 1 -12 -7
-13 -18 -1 -11 -2 -27 -3 -36 -1 -8 -20 -23 -41 -32 -24 -11 -48 -32 -60 -52
-11 -19 -24 -35 -28 -35 -13 0 -43 38 -43 55 0 20 -11 24 -37 14 -13 -4 -21
-14 -19 -21 3 -7 7 -25 10 -39 3 -14 19 -43 36 -64 16 -20 27 -41 25 -45 -8
-12 13 -60 25 -60 15 0 41 -26 33 -33 -3 -3 -7 -52 -10 -109 -7 -145 -7 -177
-1 -230 6 -49 4 -52 -57 -64 -11 -2 -27 -7 -35 -11 -18 -7 -15 -7 -65 -18 -47
-10 -54 -12 -57 -15 -2 -1 -10 -3 -18 -5 -8 -2 -33 -9 -55 -15 -22 -6 -47 -12
-55 -14 -8 -2 -35 -9 -60 -16 -25 -7 -52 -14 -60 -15 -8 -2 -15 -4 -15 -5 0
-1 -11 -3 -24 -6 -13 -2 -103 -27 -200 -55 -97 -28 -187 -53 -200 -55 -14 -3
-28 -7 -33 -10 -4 -3 -17 -7 -28 -10 -45 -10 -69 -16 -130 -34 -25 -7 -51 -15
-58 -16 -8 -1 -21 -6 -30 -9 -15 -6 -62 -14 -99 -17 -7 -1 -13 -4 -13 -8 0 -3
-8 -6 -17 -6 -20 -1 -49 -6 -153 -29 -8 -2 -19 -4 -25 -4 -5 -1 -3 -5 5 -10 8
-6 17 -8 21 -5 4 2 47 -3 96 -11 48 -9 108 -18 133 -21 65 -7 88 -12 100 -19
5 -3 10 -1 10 6 0 9 3 9 14 0 8 -6 18 -11 22 -10 12 3 139 -15 147 -20 2 -2
28 -5 107 -14 19 -2 49 -7 65 -11 68 -15 81 -18 105 -22 37 -6 71 -12 108 -18
83 -15 101 -18 152 -22 30 -3 75 -7 100 -9 25 -3 84 -7 131 -9 48 -2 92 -6 97
-10 6 -3 13 -2 17 4 4 6 11 8 16 4 6 -3 36 -7 67 -9 60 -3 113 -10 200 -25 29
-5 56 -9 60 -9 4 1 9 0 12 -1 3 -1 14 -3 25 -5 11 -2 49 -9 85 -16 36 -7 70
-14 75 -14 6 -1 12 -3 15 -4 3 -2 19 -5 35 -7 17 -3 75 -16 130 -30 55 -14
109 -27 120 -29 33 -8 54 -13 190 -49 72 -19 133 -32 138 -29 4 2 7 -1 7 -8 0
-7 3 -10 6 -7 3 3 21 2 41 -4 51 -14 59 -16 153 -38 112 -26 165 -35 255 -45
6 -1 26 4 47 11 20 7 39 10 42 7 3 -4 6 -1 6 6 0 7 4 10 8 7 5 -3 26 -1 47 5
20 6 45 12 54 14 9 1 36 9 61 15 25 7 52 14 60 14 9 1 20 5 25 8 6 3 35 9 65
13 30 4 61 12 68 17 6 6 12 7 12 3 0 -4 6 -3 13 2 6 6 44 20 82 33 39 12 80
29 93 36 12 8 22 12 22 9 0 -2 11 0 25 5 14 5 36 12 48 14 12 3 76 22 142 44
66 21 144 45 173 52 28 8 52 16 52 20 0 3 8 6 18 7 9 1 56 11 102 23 98 25
114 29 155 34 17 3 41 9 55 14 14 5 28 10 33 11 4 0 8 1 10 2 3 1 27 7 52 13
11 2 32 9 46 14 15 6 30 8 33 5 3 -4 6 -1 6 6 0 7 4 10 9 7 5 -3 25 1 45 9 20
8 37 15 38 14 2 -1 21 4 43 10 22 6 43 11 47 11 4 1 23 7 43 16 19 8 35 11 35
8 0 -4 7 -1 15 6 8 7 15 9 15 5 0 -5 10 0 22 11 12 10 18 13 14 6 -6 -11 -4
-11 10 -3 18 10 94 43 104 45 13 3 180 108 185 117 4 5 11 7 16 4 5 -4 9 -2 9
2 0 5 15 17 33 28 17 10 43 27 57 38 21 16 22 18 5 14 -31 -9 -96 -17 -168
-21 -37 -3 -71 -7 -77 -11 -5 -3 -10 -1 -10 5 0 6 -5 8 -12 4 -16 -10 -138
-12 -144 -3 -3 5 -15 5 -27 0 -12 -4 -40 -6 -62 -5 -22 2 -76 6 -120 8 -44 3
-91 8 -105 11 -29 7 -61 13 -92 19 -13 2 -43 10 -68 16 -25 7 -52 14 -60 15
-8 1 -41 10 -74 20 -32 9 -64 18 -70 19 -6 1 -17 5 -23 9 -7 5 -13 6 -13 3 0
-3 -12 -1 -27 5 -16 6 -62 13 -103 16 -41 2 -79 8 -84 13 -5 5 -10 30 -12 57
-5 63 -11 101 -23 140 -9 29 -5 112 5 122 2 2 -7 19 -21 36 l-24 33 24 27 23
28 39 -19 c21 -10 44 -17 51 -15 13 2 62 -46 62 -61 0 -4 7 -14 16 -23 15 -14
19 -14 47 3 18 10 44 17 60 16 31 -1 33 3 13 25 -8 9 -16 30 -19 48 -5 34 -31
77 -47 79 -6 1 -14 2 -20 3 -5 0 -10 9 -10 19 0 23 41 59 75 68 38 9 70 62 74
120 1 19 56 36 102 32 46 -3 109 17 109 35 0 6 11 0 25 -13 25 -23 26 -23 39
-5 12 17 12 23 -3 45 -34 48 -34 50 1 64 33 14 57 34 90 75 17 20 22 101 6
101 -3 0 -25 23 -47 51 -28 35 -38 56 -32 63 12 14 -8 58 -48 107 -21 25 -38
35 -62 37 -44 3 -125 45 -154 81 -14 15 -60 46 -102 67 -43 21 -84 44 -91 51
-7 7 -18 13 -23 13 -5 0 -9 7 -9 15 0 8 -5 15 -11 15 -5 0 -7 5 -4 10 3 6 -2
13 -12 17 -10 4 -24 14 -30 24 -7 10 -29 27 -48 39 -19 12 -35 26 -35 32 0 13
-26 38 -40 38 -6 0 -16 13 -21 29 -10 27 -12 28 -36 16 -33 -17 -53 -9 -47 18
13 55 3 127 -16 127 -10 0 26 67 42 76 5 3 19 7 31 9 64 10 95 18 127 33 37
16 44 19 59 21 5 0 13 10 16 21 3 11 14 27 23 36 18 18 22 44 26 149 2 44 -3
83 -12 105 -7 19 -15 42 -17 50 -2 8 -4 17 -5 20 -1 3 -3 10 -4 15 -2 18 -31
55 -42 55 -6 0 -52 41 -102 90 -50 50 -96 90 -102 90 -5 0 -10 5 -10 10 0 6
-6 10 -12 10 -7 0 -40 14 -73 30 -33 16 -66 30 -72 30 -7 0 -13 4 -13 9 0 8
-154 79 -189 86 -9 2 -36 11 -61 20 -25 9 -52 18 -60 20 -8 2 -46 11 -85 20
-70 17 -106 23 -157 27 -16 1 -28 5 -28 8 0 3 -12 6 -27 6 -16 1 -73 5 -128 9
-94 8 -274 13 -279 8z m1393 -2092 c19 -6 46 -9 61 -6 14 2 38 -2 54 -10 15
-8 37 -15 47 -15 11 0 19 -4 19 -9 0 -9 -66 -81 -75 -81 -18 0 -75 31 -104 58
-32 29 -41 31 -106 20 -14 -2 -19 2 -17 12 2 8 4 23 5 33 1 16 8 18 42 13 22
-3 55 -10 74 -15z"/>
</g>
</svg>
